<svg xmlns="http://www.w3.org/2000/svg" width="400" height="300"  viewBox="0 0 400 300">
    <rect width="150" height="300" x="250" y="0" fill="white" />
    <rect width="250" height="300" x="0" y="0" fill="url(#grad1)" />
    
    <circle cx="320" cy="250" r="4" fill="url(#grad2)" />
    <circle cx="330" cy="30" r="4" fill="url(#grad2)" />
    
    <circle cx="260" cy="180" r="4" fill="url(#grad1)" />
    <circle cx="385" cy="298" r="4" fill="url(#grad1)" />
    <circle cx="370" cy="120" r="4" fill="url(#grad1)" />
    <circle cx="270" cy="50" r="8" fill="url(#grad1)" />
    <circle cx="350" cy="220" r="15" fill="url(#grad1)" />
    <circle cx="310" cy="90" r="20" fill="url(#grad1)" />
    <circle cx="380" cy="20" r="50" fill="url(#grad1)" />

    <circle cx="290" cy="300" r="25" fill="url(#grad1)" />
    <circle cx="290" cy="300" r="17" fill="white" />
    <circle cx="400" cy="160" r="30" fill="url(#grad1)" />
    <circle cx="400" cy="160" r="20" fill="white" />
    <circle cx="290" cy="-6" r="25" fill="url(#grad1)" />
    <circle cx="290" cy="-6" r="17" fill="white" />

    <text x="275" y="150"
        font-family="Verdana"
        font-size="15"
        font-weight="bold"
        fill="url(#grad1)">
    Bienvenue!
    </text>
    <text x="282" y="160"
        font-family="Verdana"
        font-size="5"
        fill="url(#grad1)">
    Connectez-vous pour continuer
    </text>
     
    <defs>
        <linearGradient id="grad1" x1="0%" y1="100%" x2="100%" y2="0%">
            <stop offset="0%" stop-color="#7d0179" />
            <stop offset="100%" stop-color="#e93600" />
        </linearGradient>
    </defs>
    <defs>
        <linearGradient id="grad2" x1="0%" y1="100%" x2="100%" y2="0%">
            <stop offset="0%" stop-color="#ad65ab" />
            <stop offset="100%" stop-color="#ff6536" />
        </linearGradient>
    </defs>
</svg>