<svg xmlns="http://www.w3.org/2000/svg" width="500" height="300"  viewBox="0 0 500 300">
    <rect width="500" height="300" x="0" y="0" fill="url(#grad10)" />
    <circle cx="15" cy="5" r="20" fill="url(#grad11)" />
    <circle cx="15" cy="5" r="18" fill="url(#grad10)" />

    <circle cx="190" cy="300" r="50" fill="url(#grad11)" />
    <circle cx="190" cy="300" r="48" fill="url(#grad10)" />

    <circle cx="55" cy="185" r="10" fill="url(#grad11)" />
    <circle cx="55" cy="185" r="9" fill="url(#grad10)" />

    <circle cx="100" cy="90" r="25" fill="url(#grad11)" />
    <circle cx="100" cy="90" r="23" fill="url(#grad10)" />

    <circle cx="200" cy="20" r="15" fill="url(#grad11)" />
    <circle cx="200" cy="20" r="13" fill="url(#grad10)" />

    <circle cx="190" cy="170" r="20" fill="url(#grad11)" />
    <circle cx="190" cy="170" r="18" fill="url(#grad10)" />

    <circle cx="270" cy="110" r="10" fill="url(#grad11)" />
    <circle cx="270" cy="110" r="8" fill="url(#grad10)" />

    <circle cx="350" cy="30" r="20" fill="url(#grad11)" />
    <circle cx="350" cy="30" r="18" fill="url(#grad10)" />

    <circle cx="330" cy="220" r="15" fill="url(#grad11)" />
    <circle cx="330" cy="220" r="13" fill="url(#grad10)" />

    <circle cx="390" cy="130" r="25" fill="url(#grad11)" />
    <circle cx="390" cy="130" r="23" fill="url(#grad10)" />

    <circle cx="430" cy="260" r="30" fill="url(#grad11)" />
    <circle cx="430" cy="260" r="28" fill="url(#grad10)" />

    <circle cx="450" cy="55" r="10" fill="url(#grad11)" />
    <circle cx="450" cy="55" r="8" fill="url(#grad10)" />

    <circle cx="30" cy="270" r="15" fill="url(#grad11)" />
    <circle cx="30" cy="270" r="13" fill="url(#grad10)" />

    <defs>
        <linearGradient id="grad10" x1="0%" y1="100%" x2="100%" y2="0%">
            <stop offset="0%" stop-color="#7d0179" />
            <stop offset="100%" stop-color="#e93600" />
        </linearGradient>
        <linearGradient id="grad11" x1="0%" y1="100%" x2="100%" y2="0%">
            <stop offset="0%" stop-color="#530350" />
            <stop offset="100%" stop-color="#751c01" />
        </linearGradient>
    </defs>
</svg>